<svg xmlns="http://www.w3.org/2000/svg" viewBox="0 0 1400 900" role="img" aria-label="Futuristische Ehoser Spielszene">
  <defs>
    <linearGradient id="sky" x1="0" y1="0" x2="1" y2="1">
      <stop offset="0" stop-color="#111a24"/>
      <stop offset=".45" stop-color="#1a2330"/>
      <stop offset="1" stop-color="#07100f"/>
    </linearGradient>
    <linearGradient id="track" x1="0" y1="0" x2="0" y2="1">
      <stop offset="0" stop-color="#283240"/>
      <stop offset="1" stop-color="#0c1117"/>
    </linearGradient>
    <filter id="glow" x="-40%" y="-40%" width="180%" height="180%">
      <feGaussianBlur stdDeviation="10" result="blur"/>
      <feMerge>
        <feMergeNode in="blur"/>
        <feMergeNode in="SourceGraphic"/>
      </feMerge>
    </filter>
  </defs>
  <rect width="1400" height="900" fill="url(#sky)"/>
  <path d="M0 650 C260 520 480 520 700 640 C940 770 1130 760 1400 600 L1400 900 L0 900 Z" fill="#0a0f14"/>
  <path d="M130 900 L565 410 L835 410 L1270 900 Z" fill="url(#track)"/>
  <path d="M641 410 L600 900" stroke="#37d6a2" stroke-width="8" opacity=".75" filter="url(#glow)"/>
  <path d="M759 410 L800 900" stroke="#ffce5c" stroke-width="8" opacity=".75" filter="url(#glow)"/>
  <path d="M140 570 L405 510 L435 548 L175 625 Z" fill="#172633"/>
  <path d="M995 510 L1260 570 L1225 625 L965 548 Z" fill="#172633"/>
  <circle cx="1120" cy="180" r="72" fill="#37d6a2" opacity=".18" filter="url(#glow)"/>
  <circle cx="270" cy="210" r="48" fill="#ffce5c" opacity=".2" filter="url(#glow)"/>
  <g transform="translate(590 365)">
    <path d="M55 15 L175 55 L138 105 L20 72 Z" fill="#dce8f5"/>
    <path d="M76 32 L140 54 L121 80 L52 62 Z" fill="#121820"/>
    <path d="M4 79 L54 91" stroke="#37d6a2" stroke-width="9" filter="url(#glow)"/>
    <path d="M139 102 L189 116" stroke="#ffce5c" stroke-width="9" filter="url(#glow)"/>
  </g>
  <g opacity=".36">
    <rect x="92" y="120" width="170" height="8" fill="#37d6a2"/>
    <rect x="1010" y="300" width="230" height="8" fill="#ffce5c"/>
    <rect x="780" y="95" width="140" height="8" fill="#f4f7fb"/>
  </g>
</svg>
