{"asset":{"version":"2.0","generator":"ehoser original E1 Touring generator"},"scene":0,"scenes":[{"nodes":[53]}],"nodes":[{"name":"Chassis","mesh":0,"translation":[0,0.49,0]},{"name":"Body","mesh":1,"translation":[0,0.76,0]},{"name":"Bonnet","mesh":2,"translation":[1.44,1,0]},{"name":"Tailgate","mesh":3,"translation":[-1.75,1.0,0]},{"name":"Cabin glazing","mesh":4},{"name":"Roof","mesh":5,"translation":[-0.22,1.61,0]},{"name":"B pillar","mesh":6,"translation":[-0.17,1.28,-0.79]},{"name":"Mirror","mesh":7,"translation":[0.45,1.18,-1.02]},{"name":"Door handle","mesh":8,"translation":[-0.5,0.99,-0.96]},{"name":"Sill","mesh":9,"translation":[-0.05,0.43,-0.975]},{"name":"Headlamp","mesh":10,"translation":[2.19,0.86,-0.55]},{"name":"Tail lamp","mesh":11,"translation":[-2.19,0.88,-0.54]},{"name":"B pillar","mesh":12,"translation":[-0.17,1.28,0.79]},{"name":"Mirror","mesh":13,"translation":[0.45,1.18,1.02]},{"name":"Door handle","mesh":14,"translation":[-0.5,0.99,0.96]},{"name":"Sill","mesh":15,"translation":[-0.05,0.43,0.975]},{"name":"Headlamp","mesh":16,"translation":[2.19,0.86,0.55]},{"name":"Tail lamp","mesh":17,"translation":[-2.19,0.88,0.54]},{"name":"Front grille","mesh":18,"translation":[2.2,0.56,0]},{"name":"Rear bumper","mesh":19,"translation":[-2.2,0.51,0]},{"name":"Number plate","mesh":20,"translation":[-2.23,0.72,0]},{"name":"wheelFL","translation":[1.28,0.35,-0.94],"children":[22,23,24,25,26,27,28]},{"mesh":21},{"mesh":22},{"name":"Wheel spoke","mesh":23,"translation":[0,0,-0.149],"rotation":[0,0,0.0,1.0]},{"name":"Wheel spoke","mesh":24,"translation":[0,0,-0.149],"rotation":[0,0,0.5877852522924731,0.8090169943749475]},{"name":"Wheel spoke","mesh":25,"translation":[0,0,-0.149],"rotation":[0,0,0.9510565162951535,0.30901699437494745]},{"name":"Wheel spoke","mesh":26,"translation":[0,0,-0.149],"rotation":[0,0,0.9510565162951536,-0.30901699437494734]},{"name":"Wheel spoke","mesh":27,"translation":[0,0,-0.149],"rotation":[0,0,0.5877852522924732,-0.8090169943749473]},{"name":"wheelFR","translation":[1.28,0.35,0.94],"children":[30,31,32,33,34,35,36]},{"mesh":21},{"mesh":22},{"name":"Wheel spoke","mesh":28,"translation":[0,0,0.149],"rotation":[0,0,0.0,1.0]},{"name":"Wheel spoke","mesh":29,"translation":[0,0,0.149],"rotation":[0,0,0.5877852522924731,0.8090169943749475]},{"name":"Wheel spoke","mesh":30,"translation":[0,0,0.149],"rotation":[0,0,0.9510565162951535,0.30901699437494745]},{"name":"Wheel spoke","mesh":31,"translation":[0,0,0.149],"rotation":[0,0,0.9510565162951536,-0.30901699437494734]},{"name":"Wheel spoke","mesh":32,"translation":[0,0,0.149],"rotation":[0,0,0.5877852522924732,-0.8090169943749473]},{"name":"wheelRL","translation":[-1.29,0.35,-0.94],"children":[38,39,40,41,42,43,44]},{"mesh":21},{"mesh":22},{"name":"Wheel spoke","mesh":33,"translation":[0,0,-0.149],"rotation":[0,0,0.0,1.0]},{"name":"Wheel spoke","mesh":34,"translation":[0,0,-0.149],"rotation":[0,0,0.5877852522924731,0.8090169943749475]},{"name":"Wheel spoke","mesh":35,"translation":[0,0,-0.149],"rotation":[0,0,0.9510565162951535,0.30901699437494745]},{"name":"Wheel spoke","mesh":36,"translation":[0,0,-0.149],"rotation":[0,0,0.9510565162951536,-0.30901699437494734]},{"name":"Wheel spoke","mesh":37,"translation":[0,0,-0.149],"rotation":[0,0,0.5877852522924732,-0.8090169943749473]},{"name":"wheelRR","translation":[-1.29,0.35,0.94],"children":[46,47,48,49,50,51,52]},{"mesh":21},{"mesh":22},{"name":"Wheel spoke","mesh":38,"translation":[0,0,0.149],"rotation":[0,0,0.0,1.0]},{"name":"Wheel spoke","mesh":39,"translation":[0,0,0.149],"rotation":[0,0,0.5877852522924731,0.8090169943749475]},{"name":"Wheel spoke","mesh":40,"translation":[0,0,0.149],"rotation":[0,0,0.9510565162951535,0.30901699437494745]},{"name":"Wheel spoke","mesh":41,"translation":[0,0,0.149],"rotation":[0,0,0.9510565162951536,-0.30901699437494734]},{"name":"Wheel spoke","mesh":42,"translation":[0,0,0.149],"rotation":[0,0,0.5877852522924732,-0.8090169943749473]},{"name":"E1 Touring","children":[0,1,2,3,4,5,6,7,8,9,10,11,12,13,14,15,16,17,18,19,20,21,29,37,45],"rotation":[0,-0.7071067811865476,0,0.7071067811865476]}],"meshes":[{"primitives":[{"attributes":{"POSITION":0,"NORMAL":1},"indices":2,"material":4}]},{"primitives":[{"attributes":{"POSITION":3,"NORMAL":4},"indices":5,"material":0}]},{"primitives":[{"attributes":{"POSITION":6,"NORMAL":7},"indices":8,"material":0}]},{"primitives":[{"attributes":{"POSITION":9,"NORMAL":10},"indices":11,"material":0}]},{"primitives":[{"attributes":{"POSITION":12,"NORMAL":13},"indices":14,"material":1}]},{"primitives":[{"attributes":{"POSITION":15,"NORMAL":16},"indices":17,"material":0}]},{"primitives":[{"attributes":{"POSITION":18,"NORMAL":19},"indices":20,"material":4}]},{"primitives":[{"attributes":{"POSITION":21,"NORMAL":22},"indices":23,"material":0}]},{"primitives":[{"attributes":{"POSITION":24,"NORMAL":25},"indices":26,"material":3}]},{"primitives":[{"attributes":{"POSITION":27,"NORMAL":28},"indices":29,"material":3}]},{"primitives":[{"attributes":{"POSITION":30,"NORMAL":31},"indices":32,"material":5}]},{"primitives":[{"attributes":{"POSITION":33,"NORMAL":34},"indices":35,"material":6}]},{"primitives":[{"attributes":{"POSITION":36,"NORMAL":37},"indices":38,"material":4}]},{"primitives":[{"attributes":{"POSITION":39,"NORMAL":40},"indices":41,"material":0}]},{"primitives":[{"attributes":{"POSITION":42,"NORMAL":43},"indices":44,"material":3}]},{"primitives":[{"attributes":{"POSITION":45,"NORMAL":46},"indices":47,"material":3}]},{"primitives":[{"attributes":{"POSITION":48,"NORMAL":49},"indices":50,"material":5}]},{"primitives":[{"attributes":{"POSITION":51,"NORMAL":52},"indices":53,"material":6}]},{"primitives":[{"attributes":{"POSITION":54,"NORMAL":55},"indices":56,"material":4}]},{"primitives":[{"attributes":{"POSITION":57,"NORMAL":58},"indices":59,"material":4}]},{"primitives":[{"attributes":{"POSITION":60,"NORMAL":61},"indices":62,"material":7}]},{"primitives":[{"attributes":{"POSITION":63,"NORMAL":64},"indices":65,"material":2}]},{"primitives":[{"attributes":{"POSITION":66,"NORMAL":67},"indices":68,"material":3}]},{"primitives":[{"attributes":{"POSITION":69,"NORMAL":70},"indices":71,"material":4}]},{"primitives":[{"attributes":{"POSITION":72,"NORMAL":73},"indices":74,"material":4}]},{"primitives":[{"attributes":{"POSITION":75,"NORMAL":76},"indices":77,"material":4}]},{"primitives":[{"attributes":{"POSITION":78,"NORMAL":79},"indices":80,"material":4}]},{"primitives":[{"attributes":{"POSITION":81,"NORMAL":82},"indices":83,"material":4}]},{"primitives":[{"attributes":{"POSITION":84,"NORMAL":85},"indices":86,"material":4}]},{"primitives":[{"attributes":{"POSITION":87,"NORMAL":88},"indices":89,"material":4}]},{"primitives":[{"attributes":{"POSITION":90,"NORMAL":91},"indices":92,"material":4}]},{"primitives":[{"attributes":{"POSITION":93,"NORMAL":94},"indices":95,"material":4}]},{"primitives":[{"attributes":{"POSITION":96,"NORMAL":97},"indices":98,"material":4}]},{"primitives":[{"attributes":{"POSITION":99,"NORMAL":100},"indices":101,"material":4}]},{"primitives":[{"attributes":{"POSITION":102,"NORMAL":103},"indices":104,"material":4}]},{"primitives":[{"attributes":{"POSITION":105,"NORMAL":106},"indices":107,"material":4}]},{"primitives":[{"attributes":{"POSITION":108,"NORMAL":109},"indices":110,"material":4}]},{"primitives":[{"attributes":{"POSITION":111,"NORMAL":112},"indices":113,"material":4}]},{"primitives":[{"attributes":{"POSITION":114,"NORMAL":115},"indices":116,"material":4}]},{"primitives":[{"attributes":{"POSITION":117,"NORMAL":118},"indices":119,"material":4}]},{"primitives":[{"attributes":{"POSITION":120,"NORMAL":121},"indices":122,"material":4}]},{"primitives":[{"attributes":{"POSITION":123,"NORMAL":124},"indices":125,"material":4}]},{"primitives":[{"attributes":{"POSITION":126,"NORMAL":127},"indices":128,"material":4}]}],"materials":[{"name":"Sea glass paint","pbrMetallicRoughness":{"baseColorFactor":[0.13,0.6,0.49,1],"metallicFactor":0.48,"roughnessFactor":0.28}},{"name":"Midnight glass","pbrMetallicRoughness":{"baseColorFactor":[0.045,0.1,0.14,1],"metallicFactor":0.6,"roughnessFactor":0.18}},{"name":"Tire rubber","pbrMetallicRoughness":{"baseColorFactor":[0.026,0.032,0.03,1],"metallicFactor":0,"roughnessFactor":0.88}},{"name":"Satin alloy","pbrMetallicRoughness":{"baseColorFactor":[0.65,0.73,0.72,1],"metallicFactor":0.8,"roughnessFactor":0.24}},{"name":"Charcoal trim","pbrMetallicRoughness":{"baseColorFactor":[0.045,0.063,0.056,1],"metallicFactor":0.25,"roughnessFactor":0.42}},{"name":"LED headlights","pbrMetallicRoughness":{"baseColorFactor":[0.9,1,1,1],"metallicFactor":0.1,"roughnessFactor":0.3},"emissiveFactor":[0.5,0.7,0.7]},{"name":"Rear lights","pbrMetallicRoughness":{"baseColorFactor":[0.8,0.04,0.025,1],"metallicFactor":0.1,"roughnessFactor":0.3},"emissiveFactor":[0.5,0.015,0.005]},{"name":"Badge","pbrMetallicRoughness":{"baseColorFactor":[0.76,0.95,0.82,1],"metallicFactor":0.65,"roughnessFactor":0.25}}],"buffers":[{"byteLength":34584,"uri":"data:application/octet-stream;base64,"}],"bufferViews":[{"buffer":0,"byteOffset":0,"byteLength":288,"target":34962},{"buffer":0,"byteOffset":288,"byteLength":288,"target":34962},{"buffer":0,"byteOffset":576,"byteLength":72,"target":34963},{"buffer":0,"byteOffset":648,"byteLength":288,"target":34962},{"buffer":0,"byteOffset":936,"byteLength":288,"target":34962},{"buffer":0,"byteOffset":1224,"byteLength":72,"target":34963},{"buffer":0,"byteOffset":1296,"byteLength":288,"target":34962},{"buffer":0,"byteOffset":1584,"byteLength":288,"target":34962},{"buffer":0,"byteOffset":1872,"byteLength":72,"target":34963},{"buffer":0,"byteOffset":1944,"byteLength":288,"target":34962},{"buffer":0,"byteOffset":2232,"byteLength":288,"target":34962},{"buffer":0,"byteOffset":2520,"byteLength":72,"target":34963},{"buffer":0,"byteOffset":2592,"byteLength":288,"target":34962},{"buffer":0,"byteOffset":2880,"byteLength":288,"target":34962},{"buffer":0,"byteOffset":3168,"byteLength":72,"target":34963},{"buffer":0,"byteOffset":3240,"byteLength":288,"target":34962},{"buffer":0,"byteOffset":3528,"byteLength":288,"target":34962},{"buffer":0,"byteOffset":3816,"byteLength":72,"target":34963},{"buffer":0,"byteOffset":3888,"byteLength":288,"target":34962},{"buffer":0,"byteOffset":4176,"byteLength":288,"target":34962},{"buffer":0,"byteOffset":4464,"byteLength":72,"target":34963},{"buffer":0,"byteOffset":4536,"byteLength":288,"target":34962},{"buffer":0,"byteOffset":4824,"byteLength":288,"target":34962},{"buffer":0,"byteOffset":5112,"byteLength":72,"target":34963},{"buffer":0,"byteOffset":5184,"byteLength":288,"target":34962},{"buffer":0,"byteOffset":5472,"byteLength":288,"target":34962},{"buffer":0,"byteOffset":5760,"byteLength":72,"target":34963},{"buffer":0,"byteOffset":5832,"byteLength":288,"target":34962},{"buffer":0,"byteOffset":6120,"byteLength":288,"target":34962},{"buffer":0,"byteOffset":6408,"byteLength":72,"target":34963},{"buffer":0,"byteOffset":6480,"byteLength":288,"target":34962},{"buffer":0,"byteOffset":6768,"byteLength":288,"target":34962},{"buffer":0,"byteOffset":7056,"byteLength":72,"target":34963},{"buffer":0,"byteOffset":7128,"byteLength":288,"target":34962},{"buffer":0,"byteOffset":7416,"byteLength":288,"target":34962},{"buffer":0,"byteOffset":7704,"byteLength":72,"target":34963},{"buffer":0,"byteOffset":7776,"byteLength":288,"target":34962},{"buffer":0,"byteOffset":8064,"byteLength":288,"target":34962},{"buffer":0,"byteOffset":8352,"byteLength":72,"target":34963},{"buffer":0,"byteOffset":8424,"byteLength":288,"target":34962},{"buffer":0,"byteOffset":8712,"byteLength":288,"target":34962},{"buffer":0,"byteOffset":9000,"byteLength":72,"target":34963},{"buffer":0,"byteOffset":9072,"byteLength":288,"target":34962},{"buffer":0,"byteOffset":9360,"byteLength":288,"target":34962},{"buffer":0,"byteOffset":9648,"byteLength":72,"target":34963},{"buffer":0,"byteOffset":9720,"byteLength":288,"target":34962},{"buffer":0,"byteOffset":10008,"byteLength":288,"target":34962},{"buffer":0,"byteOffset":10296,"byteLength":72,"target":34963},{"buffer":0,"byteOffset":10368,"byteLength":288,"target":34962},{"buffer":0,"byteOffset":10656,"byteLength":288,"target":34962},{"buffer":0,"byteOffset":10944,"byteLength":72,"target":34963},{"buffer":0,"byteOffset":11016,"byteLength":288,"target":34962},{"buffer":0,"byteOffset":11304,"byteLength":288,"target":34962},{"buffer":0,"byteOffset":11592,"byteLength":72,"target":34963},{"buffer":0,"byteOffset":11664,"byteLength":288,"target":34962},{"buffer":0,"byteOffset":11952,"byteLength":288,"target":34962},{"buffer":0,"byteOffset":12240,"byteLength":72,"target":34963},{"buffer":0,"byteOffset":12312,"byteLength":288,"target":34962},{"buffer":0,"byteOffset":12600,"byteLength":288,"target":34962},{"buffer":0,"byteOffset":12888,"byteLength":72,"target":34963},{"buffer":0,"byteOffset":12960,"byteLength":288,"target":34962},{"buffer":0,"byteOffset":13248,"byteLength":288,"target":34962},{"buffer":0,"byteOffset":13536,"byteLength":72,"target":34963},{"buffer":0,"byteOffset":13608,"byteLength":1728,"target":34962},{"buffer":0,"byteOffset":15336,"byteLength":1728,"target":34962},{"buffer":0,"byteOffset":17064,"byteLength":552,"target":34963},{"buffer":0,"byteOffset":17616,"byteLength":1728,"target":34962},{"buffer":0,"byteOffset":19344,"byteLength":1728,"target":34962},{"buffer":0,"byteOffset":21072,"byteLength":552,"target":34963},{"buffer":0,"byteOffset":21624,"byteLength":288,"target":34962},{"buffer":0,"byteOffset":21912,"byteLength":288,"target":34962},{"buffer":0,"byteOffset":22200,"byteLength":72,"target":34963},{"buffer":0,"byteOffset":22272,"byteLength":288,"target":34962},{"buffer":0,"byteOffset":22560,"byteLength":288,"target":34962},{"buffer":0,"byteOffset":22848,"byteLength":72,"target":34963},{"buffer":0,"byteOffset":22920,"byteLength":288,"target":34962},{"buffer":0,"byteOffset":23208,"byteLength":288,"target":34962},{"buffer":0,"byteOffset":23496,"byteLength":72,"target":34963},{"buffer":0,"byteOffset":23568,"byteLength":288,"target":34962},{"buffer":0,"byteOffset":23856,"byteLength":288,"target":34962},{"buffer":0,"byteOffset":24144,"byteLength":72,"target":34963},{"buffer":0,"byteOffset":24216,"byteLength":288,"target":34962},{"buffer":0,"byteOffset":24504,"byteLength":288,"target":34962},{"buffer":0,"byteOffset":24792,"byteLength":72,"target":34963},{"buffer":0,"byteOffset":24864,"byteLength":288,"target":34962},{"buffer":0,"byteOffset":25152,"byteLength":288,"target":34962},{"buffer":0,"byteOffset":25440,"byteLength":72,"target":34963},{"buffer":0,"byteOffset":25512,"byteLength":288,"target":34962},{"buffer":0,"byteOffset":25800,"byteLength":288,"target":34962},{"buffer":0,"byteOffset":26088,"byteLength":72,"target":34963},{"buffer":0,"byteOffset":26160,"byteLength":288,"target":34962},{"buffer":0,"byteOffset":26448,"byteLength":288,"target":34962},{"buffer":0,"byteOffset":26736,"byteLength":72,"target":34963},{"buffer":0,"byteOffset":26808,"byteLength":288,"target":34962},{"buffer":0,"byteOffset":27096,"byteLength":288,"target":34962},{"buffer":0,"byteOffset":27384,"byteLength":72,"target":34963},{"buffer":0,"byteOffset":27456,"byteLength":288,"target":34962},{"buffer":0,"byteOffset":27744,"byteLength":288,"target":34962},{"buffer":0,"byteOffset":28032,"byteLength":72,"target":34963},{"buffer":0,"byteOffset":28104,"byteLength":288,"target":34962},{"buffer":0,"byteOffset":28392,"byteLength":288,"target":34962},{"buffer":0,"byteOffset":28680,"byteLength":72,"target":34963},{"buffer":0,"byteOffset":28752,"byteLength":288,"target":34962},{"buffer":0,"byteOffset":29040,"byteLength":288,"target":34962},{"buffer":0,"byteOffset":29328,"byteLength":72,"target":34963},{"buffer":0,"byteOffset":29400,"byteLength":288,"target":34962},{"buffer":0,"byteOffset":29688,"byteLength":288,"target":34962},{"buffer":0,"byteOffset":29976,"byteLength":72,"target":34963},{"buffer":0,"byteOffset":30048,"byteLength":288,"target":34962},{"buffer":0,"byteOffset":30336,"byteLength":288,"target":34962},{"buffer":0,"byteOffset":30624,"byteLength":72,"target":34963},{"buffer":0,"byteOffset":30696,"byteLength":288,"target":34962},{"buffer":0,"byteOffset":30984,"byteLength":288,"target":34962},{"buffer":0,"byteOffset":31272,"byteLength":72,"target":34963},{"buffer":0,"byteOffset":31344,"byteLength":288,"target":34962},{"buffer":0,"byteOffset":31632,"byteLength":288,"target":34962},{"buffer":0,"byteOffset":31920,"byteLength":72,"target":34963},{"buffer":0,"byteOffset":31992,"byteLength":288,"target":34962},{"buffer":0,"byteOffset":32280,"byteLength":288,"target":34962},{"buffer":0,"byteOffset":32568,"byteLength":72,"target":34963},{"buffer":0,"byteOffset":32640,"byteLength":288,"target":34962},{"buffer":0,"byteOffset":32928,"byteLength":288,"target":34962},{"buffer":0,"byteOffset":33216,"byteLength":72,"target":34963},{"buffer":0,"byteOffset":33288,"byteLength":288,"target":34962},{"buffer":0,"byteOffset":33576,"byteLength":288,"target":34962},{"buffer":0,"byteOffset":33864,"byteLength":72,"target":34963},{"buffer":0,"byteOffset":33936,"byteLength":288,"target":34962},{"buffer":0,"byteOffset":34224,"byteLength":288,"target":34962},{"buffer":0,"byteOffset":34512,"byteLength":72,"target":34963}],"accessors":[{"bufferView":0,"componentType":5126,"count":24,"type":"VEC3","min":[-2.125,-0.135,-0.96],"max":[2.125,0.135,0.96]},{"bufferView":1,"componentType":5126,"count":24,"type":"VEC3","min":[-1.0,-1.0,-1.0],"max":[1.0,1.0,1.0]},{"bufferView":2,"componentType":5123,"count":36,"type":"SCALAR"},{"bufferView":3,"componentType":5126,"count":24,"type":"VEC3","min":[-2.175,-0.22,-0.95],"max":[2.175,0.22,0.95]},{"bufferView":4,"componentType":5126,"count":24,"type":"VEC3","min":[-1.0,-1.0,-1.0],"max":[1.0,1.0,1.0]},{"bufferView":5,"componentType":5123,"count":36,"type":"SCALAR"},{"bufferView":6,"componentType":5126,"count":24,"type":"VEC3","min":[-0.675,-0.05,-0.9],"max":[0.675,0.05,0.9]},{"bufferView":7,"componentType":5126,"count":24,"type":"VEC3","min":[-1.0,-1.0,-1.0],"max":[1.0,1.0,1.0]},{"bufferView":8,"componentType":5123,"count":36,"type":"SCALAR"},{"bufferView":9,"componentType":5126,"count":24,"type":"VEC3","min":[-0.375,-0.06,-0.92],"max":[0.375,0.06,0.92]},{"bufferView":10,"componentType":5126,"count":24,"type":"VEC3","min":[-1.0,-1.0,-1.0],"max":[1.0,1.0,1.0]},{"bufferView":11,"componentType":5123,"count":36,"type":"SCALAR"},{"bufferView":12,"componentType":5126,"count":24,"type":"VEC3","min":[-1.2,1,-0.86],"max":[0.92,1.58,0.86]},{"bufferView":13,"componentType":5126,"count":24,"type":"VEC3","min":[-0.8232127859153064,-1.0,-0.9639926182060737],"max":[0.7132285711519097,1.0,0.9639926182060737]},{"bufferView":14,"componentType":5123,"count":36,"type":"SCALAR"},{"bufferView":15,"componentType":5126,"count":24,"type":"VEC3","min":[-0.625,-0.0275,-0.72],"max":[0.625,0.0275,0.72]},{"bufferView":16,"componentType":5126,"count":24,"type":"VEC3","min":[-1.0,-1.0,-1.0],"max":[1.0,1.0,1.0]},{"bufferView":17,"componentType":5123,"count":36,"type":"SCALAR"},{"bufferView":18,"componentType":5126,"count":24,"type":"VEC3","min":[-0.05,-0.275,-0.0275],"max":[0.05,0.275,0.0275]},{"bufferView":19,"componentType":5126,"count":24,"type":"VEC3","min":[-1.0,-1.0,-1.0],"max":[1.0,1.0,1.0]},{"bufferView":20,"componentType":5123,"count":36,"type":"SCALAR"},{"bufferView":21,"componentType":5126,"count":24,"type":"VEC3","min":[-0.15,-0.08,-0.11],"max":[0.15,0.08,0.11]},{"bufferView":22,"componentType":5126,"count":24,"type":"VEC3","min":[-1.0,-1.0,-1.0],"max":[1.0,1.0,1.0]},{"bufferView":23,"componentType":5123,"count":36,"type":"SCALAR"},{"bufferView":24,"componentType":5126,"count":24,"type":"VEC3","min":[-0.095,-0.0175,-0.0175],"max":[0.095,0.0175,0.0175]},{"bufferView":25,"componentType":5126,"count":24,"type":"VEC3","min":[-1.0,-1.0,-1.0],"max":[1.0,1.0,1.0]},{"bufferView":26,"componentType":5123,"count":36,"type":"SCALAR"},{"bufferView":27,"componentType":5126,"count":24,"type":"VEC3","min":[-1.25,-0.06,-0.0275],"max":[1.25,0.06,0.0275]},{"bufferView":28,"componentType":5126,"count":24,"type":"VEC3","min":[-1.0,-1.0,-1.0],"max":[1.0,1.0,1.0]},{"bufferView":29,"componentType":5123,"count":36,"type":"SCALAR"},{"bufferView":30,"componentType":5126,"count":24,"type":"VEC3","min":[-0.0175,-0.06,-0.27],"max":[0.0175,0.06,0.27]},{"bufferView":31,"componentType":5126,"count":24,"type":"VEC3","min":[-1.0,-1.0,-1.0],"max":[1.0,1.0,1.0]},{"bufferView":32,"componentType":5123,"count":36,"type":"SCALAR"},{"bufferView":33,"componentType":5126,"count":24,"type":"VEC3","min":[-0.0175,-0.05,-0.275],"max":[0.0175,0.05,0.275]},{"bufferView":34,"componentType":5126,"count":24,"type":"VEC3","min":[-1.0,-1.0,-1.0],"max":[1.0,1.0,1.0]},{"bufferView":35,"componentType":5123,"count":36,"type":"SCALAR"},{"bufferView":36,"componentType":5126,"count":24,"type":"VEC3","min":[-0.05,-0.275,-0.0275],"max":[0.05,0.275,0.0275]},{"bufferView":37,"componentType":5126,"count":24,"type":"VEC3","min":[-1.0,-1.0,-1.0],"max":[1.0,1.0,1.0]},{"bufferView":38,"componentType":5123,"count":36,"type":"SCALAR"},{"bufferView":39,"componentType":5126,"count":24,"type":"VEC3","min":[-0.15,-0.08,-0.11],"max":[0.15,0.08,0.11]},{"bufferView":40,"componentType":5126,"count":24,"type":"VEC3","min":[-1.0,-1.0,-1.0],"max":[1.0,1.0,1.0]},{"bufferView":41,"componentType":5123,"count":36,"type":"SCALAR"},{"bufferView":42,"componentType":5126,"count":24,"type":"VEC3","min":[-0.095,-0.0175,-0.0175],"max":[0.095,0.0175,0.0175]},{"bufferView":43,"componentType":5126,"count":24,"type":"VEC3","min":[-1.0,-1.0,-1.0],"max":[1.0,1.0,1.0]},{"bufferView":44,"componentType":5123,"count":36,"type":"SCALAR"},{"bufferView":45,"componentType":5126,"count":24,"type":"VEC3","min":[-1.25,-0.06,-0.0275],"max":[1.25,0.06,0.0275]},{"bufferView":46,"componentType":5126,"count":24,"type":"VEC3","min":[-1.0,-1.0,-1.0],"max":[1.0,1.0,1.0]},{"bufferView":47,"componentType":5123,"count":36,"type":"SCALAR"},{"bufferView":48,"componentType":5126,"count":24,"type":"VEC3","min":[-0.0175,-0.06,-0.27],"max":[0.0175,0.06,0.27]},{"bufferView":49,"componentType":5126,"count":24,"type":"VEC3","min":[-1.0,-1.0,-1.0],"max":[1.0,1.0,1.0]},{"bufferView":50,"componentType":5123,"count":36,"type":"SCALAR"},{"bufferView":51,"componentType":5126,"count":24,"type":"VEC3","min":[-0.0175,-0.05,-0.275],"max":[0.0175,0.05,0.275]},{"bufferView":52,"componentType":5126,"count":24,"type":"VEC3","min":[-1.0,-1.0,-1.0],"max":[1.0,1.0,1.0]},{"bufferView":53,"componentType":5123,"count":36,"type":"SCALAR"},{"bufferView":54,"componentType":5126,"count":24,"type":"VEC3","min":[-0.02,-0.1,-0.41],"max":[0.02,0.1,0.41]},{"bufferView":55,"componentType":5126,"count":24,"type":"VEC3","min":[-1.0,-1.0,-1.0],"max":[1.0,1.0,1.0]},{"bufferView":56,"componentType":5123,"count":36,"type":"SCALAR"},{"bufferView":57,"componentType":5126,"count":24,"type":"VEC3","min":[-0.0275,-0.08,-0.9],"max":[0.0275,0.08,0.9]},{"bufferView":58,"componentType":5126,"count":24,"type":"VEC3","min":[-1.0,-1.0,-1.0],"max":[1.0,1.0,1.0]},{"bufferView":59,"componentType":5123,"count":36,"type":"SCALAR"},{"bufferView":60,"componentType":5126,"count":24,"type":"VEC3","min":[-0.015,-0.065,-0.185],"max":[0.015,0.065,0.185]},{"bufferView":61,"componentType":5126,"count":24,"type":"VEC3","min":[-1.0,-1.0,-1.0],"max":[1.0,1.0,1.0]},{"bufferView":62,"componentType":5123,"count":36,"type":"SCALAR"},{"bufferView":63,"componentType":5126,"count":144,"type":"VEC3","min":[-0.35,-0.35,-0.135],"max":[0.35,0.35,0.135]},{"bufferView":64,"componentType":5126,"count":144,"type":"VEC3","min":[-0.9914448613738104,-0.9914448613738104,-1.0],"max":[0.9914448613738105,0.9914448613738104,1.0]},{"bufferView":65,"componentType":5123,"count":276,"type":"SCALAR"},{"bufferView":66,"componentType":5126,"count":144,"type":"VEC3","min":[-0.23,-0.23,-0.1425],"max":[0.23,0.23,0.1425]},{"bufferView":67,"componentType":5126,"count":144,"type":"VEC3","min":[-0.9914448613738104,-0.9914448613738106,-1.0],"max":[0.9914448613738104,0.9914448613738104,1.0]},{"bufferView":68,"componentType":5123,"count":276,"type":"SCALAR"},{"bufferView":69,"componentType":5126,"count":24,"type":"VEC3","min":[-0.145,-0.0175,-0.005],"max":[0.145,0.0175,0.005]},{"bufferView":70,"componentType":5126,"count":24,"type":"VEC3","min":[-1.0,-1.0,-1.0],"max":[1.0,1.0,1.0]},{"bufferView":71,"componentType":5123,"count":36,"type":"SCALAR"},{"bufferView":72,"componentType":5126,"count":24,"type":"VEC3","min":[-0.145,-0.0175,-0.005],"max":[0.145,0.0175,0.005]},{"bufferView":73,"componentType":5126,"count":24,"type":"VEC3","min":[-1.0,-1.0,-1.0],"max":[1.0,1.0,1.0]},{"bufferView":74,"componentType":5123,"count":36,"type":"SCALAR"},{"bufferView":75,"componentType":5126,"count":24,"type":"VEC3","min":[-0.145,-0.0175,-0.005],"max":[0.145,0.0175,0.005]},{"bufferView":76,"componentType":5126,"count":24,"type":"VEC3","min":[-1.0,-1.0,-1.0],"max":[1.0,1.0,1.0]},{"bufferView":77,"componentType":5123,"count":36,"type":"SCALAR"},{"bufferView":78,"componentType":5126,"count":24,"type":"VEC3","min":[-0.145,-0.0175,-0.005],"max":[0.145,0.0175,0.005]},{"bufferView":79,"componentType":5126,"count":24,"type":"VEC3","min":[-1.0,-1.0,-1.0],"max":[1.0,1.0,1.0]},{"bufferView":80,"componentType":5123,"count":36,"type":"SCALAR"},{"bufferView":81,"componentType":5126,"count":24,"type":"VEC3","min":[-0.145,-0.0175,-0.005],"max":[0.145,0.0175,0.005]},{"bufferView":82,"componentType":5126,"count":24,"type":"VEC3","min":[-1.0,-1.0,-1.0],"max":[1.0,1.0,1.0]},{"bufferView":83,"componentType":5123,"count":36,"type":"SCALAR"},{"bufferView":84,"componentType":5126,"count":24,"type":"VEC3","min":[-0.145,-0.0175,-0.005],"max":[0.145,0.0175,0.005]},{"bufferView":85,"componentType":5126,"count":24,"type":"VEC3","min":[-1.0,-1.0,-1.0],"max":[1.0,1.0,1.0]},{"bufferView":86,"componentType":5123,"count":36,"type":"SCALAR"},{"bufferView":87,"componentType":5126,"count":24,"type":"VEC3","min":[-0.145,-0.0175,-0.005],"max":[0.145,0.0175,0.005]},{"bufferView":88,"componentType":5126,"count":24,"type":"VEC3","min":[-1.0,-1.0,-1.0],"max":[1.0,1.0,1.0]},{"bufferView":89,"componentType":5123,"count":36,"type":"SCALAR"},{"bufferView":90,"componentType":5126,"count":24,"type":"VEC3","min":[-0.145,-0.0175,-0.005],"max":[0.145,0.0175,0.005]},{"bufferView":91,"componentType":5126,"count":24,"type":"VEC3","min":[-1.0,-1.0,-1.0],"max":[1.0,1.0,1.0]},{"bufferView":92,"componentType":5123,"count":36,"type":"SCALAR"},{"bufferView":93,"componentType":5126,"count":24,"type":"VEC3","min":[-0.145,-0.0175,-0.005],"max":[0.145,0.0175,0.005]},{"bufferView":94,"componentType":5126,"count":24,"type":"VEC3","min":[-1.0,-1.0,-1.0],"max":[1.0,1.0,1.0]},{"bufferView":95,"componentType":5123,"count":36,"type":"SCALAR"},{"bufferView":96,"componentType":5126,"count":24,"type":"VEC3","min":[-0.145,-0.0175,-0.005],"max":[0.145,0.0175,0.005]},{"bufferView":97,"componentType":5126,"count":24,"type":"VEC3","min":[-1.0,-1.0,-1.0],"max":[1.0,1.0,1.0]},{"bufferView":98,"componentType":5123,"count":36,"type":"SCALAR"},{"bufferView":99,"componentType":5126,"count":24,"type":"VEC3","min":[-0.145,-0.0175,-0.005],"max":[0.145,0.0175,0.005]},{"bufferView":100,"componentType":5126,"count":24,"type":"VEC3","min":[-1.0,-1.0,-1.0],"max":[1.0,1.0,1.0]},{"bufferView":101,"componentType":5123,"count":36,"type":"SCALAR"},{"bufferView":102,"componentType":5126,"count":24,"type":"VEC3","min":[-0.145,-0.0175,-0.005],"max":[0.145,0.0175,0.005]},{"bufferView":103,"componentType":5126,"count":24,"type":"VEC3","min":[-1.0,-1.0,-1.0],"max":[1.0,1.0,1.0]},{"bufferView":104,"componentType":5123,"count":36,"type":"SCALAR"},{"bufferView":105,"componentType":5126,"count":24,"type":"VEC3","min":[-0.145,-0.0175,-0.005],"max":[0.145,0.0175,0.005]},{"bufferView":106,"componentType":5126,"count":24,"type":"VEC3","min":[-1.0,-1.0,-1.0],"max":[1.0,1.0,1.0]},{"bufferView":107,"componentType":5123,"count":36,"type":"SCALAR"},{"bufferView":108,"componentType":5126,"count":24,"type":"VEC3","min":[-0.145,-0.0175,-0.005],"max":[0.145,0.0175,0.005]},{"bufferView":109,"componentType":5126,"count":24,"type":"VEC3","min":[-1.0,-1.0,-1.0],"max":[1.0,1.0,1.0]},{"bufferView":110,"componentType":5123,"count":36,"type":"SCALAR"},{"bufferView":111,"componentType":5126,"count":24,"type":"VEC3","min":[-0.145,-0.0175,-0.005],"max":[0.145,0.0175,0.005]},{"bufferView":112,"componentType":5126,"count":24,"type":"VEC3","min":[-1.0,-1.0,-1.0],"max":[1.0,1.0,1.0]},{"bufferView":113,"componentType":5123,"count":36,"type":"SCALAR"},{"bufferView":114,"componentType":5126,"count":24,"type":"VEC3","min":[-0.145,-0.0175,-0.005],"max":[0.145,0.0175,0.005]},{"bufferView":115,"componentType":5126,"count":24,"type":"VEC3","min":[-1.0,-1.0,-1.0],"max":[1.0,1.0,1.0]},{"bufferView":116,"componentType":5123,"count":36,"type":"SCALAR"},{"bufferView":117,"componentType":5126,"count":24,"type":"VEC3","min":[-0.145,-0.0175,-0.005],"max":[0.145,0.0175,0.005]},{"bufferView":118,"componentType":5126,"count":24,"type":"VEC3","min":[-1.0,-1.0,-1.0],"max":[1.0,1.0,1.0]},{"bufferView":119,"componentType":5123,"count":36,"type":"SCALAR"},{"bufferView":120,"componentType":5126,"count":24,"type":"VEC3","min":[-0.145,-0.0175,-0.005],"max":[0.145,0.0175,0.005]},{"bufferView":121,"componentType":5126,"count":24,"type":"VEC3","min":[-1.0,-1.0,-1.0],"max":[1.0,1.0,1.0]},{"bufferView":122,"componentType":5123,"count":36,"type":"SCALAR"},{"bufferView":123,"componentType":5126,"count":24,"type":"VEC3","min":[-0.145,-0.0175,-0.005],"max":[0.145,0.0175,0.005]},{"bufferView":124,"componentType":5126,"count":24,"type":"VEC3","min":[-1.0,-1.0,-1.0],"max":[1.0,1.0,1.0]},{"bufferView":125,"componentType":5123,"count":36,"type":"SCALAR"},{"bufferView":126,"componentType":5126,"count":24,"type":"VEC3","min":[-0.145,-0.0175,-0.005],"max":[0.145,0.0175,0.005]},{"bufferView":127,"componentType":5126,"count":24,"type":"VEC3","min":[-1.0,-1.0,-1.0],"max":[1.0,1.0,1.0]},{"bufferView":128,"componentType":5123,"count":36,"type":"SCALAR"}]}